<?xml version="1.0" encoding="iso-8859-1"?>
<!-- Generator: Adobe Illustrator 19.0.0, SVG Export Plug-In . SVG Version: 6.00 Build 0)  -->
<svg version="1.1" id="Capa_1" xmlns="http://www.w3.org/2000/svg" xmlns:xlink="http://www.w3.org/1999/xlink" x="0px" y="0px"
	 viewBox="0 0 512 512" style="enable-background:new 0 0 512 512;" xml:space="preserve">
<path style="fill:#FFFFFF;" d="M85.295,74.667h298.667v362.667H85.295V74.667z"/>
<g>
	<circle style="fill:#87D2F3;" cx="298.629" cy="256" r="128"/>
	<path style="fill:#87D2F3;" d="M383.962,437.333v21.333c0,23.564-19.103,42.667-42.667,42.667H127.962
		c-23.564,0-42.667-19.103-42.667-42.667v-21.333H383.962z"/>
	<path style="fill:#87D2F3;" d="M383.962,53.333v21.333H85.295V53.333c0-23.564,19.103-42.667,42.667-42.667h213.333
		C364.859,10.667,383.962,29.769,383.962,53.333z"/>
</g>
<g>
	<path style="fill:#2170A6;" d="M373.295,426.667H95.962V85.333h277.333v21.333h21.333V53.333
		C394.593,23.893,370.736,0.035,341.295,0H127.962C98.521,0.035,74.664,23.893,74.629,53.333v405.333
		c0.035,29.441,23.893,53.298,53.333,53.333h213.333c29.441-0.035,53.298-23.893,53.333-53.333v-53.333h-21.333V426.667z
		 M127.962,21.333h213.333c17.673,0,32,14.327,32,32V64H95.962V53.333C95.962,35.66,110.289,21.333,127.962,21.333z
		 M341.295,490.667H127.962c-17.673,0-32-14.327-32-32V448h277.333v10.667C373.295,476.34,358.968,490.667,341.295,490.667z"/>
	<path style="fill:#2170A6;" d="M436.474,240.203c-8.717-76.121-77.491-130.764-153.613-122.047
		c-32.146,3.681-61.995,18.483-84.382,41.844h-27.851v21.333h32.523c3.033,0,5.923-1.292,7.947-3.552
		c43.199-48.302,117.375-52.439,165.677-9.24s52.439,117.375,9.24,165.677s-117.375,52.439-165.677,9.24
		c-3.249-2.906-6.334-5.991-9.24-9.24c-2.018-2.255-4.899-3.546-7.925-3.552h-32.544V352h27.883
		c53.047,55.294,140.874,57.115,196.168,4.068C425.931,326.086,441.389,283.231,436.474,240.203L436.474,240.203z"/>
	<path style="fill:#2170A6;" d="M255.962,277.333V288c0,11.782,9.551,21.333,21.333,21.333h10.667v21.333h21.333v-21.333h10.667
		c11.782,0,21.333-9.551,21.333-21.333v-21.333c0-11.782-9.551-21.333-21.333-21.333h-42.667V224h42.667v10.667h21.333V224
		c0-11.782-9.551-21.333-21.333-21.333h-10.667v-21.333h-21.333v21.333h-10.667c-11.782,0-21.333,9.551-21.333,21.333v21.333
		c0,11.782,9.551,21.333,21.333,21.333h42.667V288h-42.667v-10.667H255.962z"/>
	<path style="fill:#2170A6;" d="M170.629,245.333h53.333v21.333h-53.333V245.333z"/>
	<path style="fill:#2170A6;" d="M127.962,245.333h21.333v21.333h-21.333V245.333z"/>
	<path style="fill:#2170A6;" d="M127.962,330.667h21.333V352h-21.333V330.667z"/>
	<path style="fill:#2170A6;" d="M127.962,160h21.333v21.333h-21.333V160z"/>
	<path style="fill:#2170A6;" d="M127.962,202.667h74.667V224h-74.667V202.667z"/>
	<path style="fill:#2170A6;" d="M127.962,288h74.667v21.333h-74.667V288z"/>
</g>
<g>
</g>
<g>
</g>
<g>
</g>
<g>
</g>
<g>
</g>
<g>
</g>
<g>
</g>
<g>
</g>
<g>
</g>
<g>
</g>
<g>
</g>
<g>
</g>
<g>
</g>
<g>
</g>
<g>
</g>
</svg>
