<svg id="Layer_1" enable-background="new 0 0 512.002 512.002" height="512" viewBox="0 0 512.002 512.002" width="512" xmlns="http://www.w3.org/2000/svg"><g><g clip-rule="evenodd" fill-rule="evenodd"><g><path d="m36.001 60.001h305.085v-30.001c0-11-9-20-20-20h-265.085c-11 0-20 9-20 20z" fill="#6d91ac"/><path d="m341.086 60.001h-305.085v422.002c0 11 9 20 20 20h265.085c11 0 20-9 20-20 0-182.936 0-255.427 0-422.002zm-222.541 167.421v43.296h-40v-43.296zm-40 97.419h40v43.296h-40zm0-194.837h40v43.296h-40zm109.999 291.995c11.046 0 20 8.955 20 20s-8.955 20-20 20-20-8.955-20-20 8.954-20 20-20z" fill="#fff"/><g fill="#cbe558"><path d="m78.545 130.004h40v43.296h-40z"/><path d="m78.545 227.422h40v43.296h-40z"/><path d="m78.545 324.841h40v43.296h-40z"/></g><circle cx="188.544" cy="441.999" fill="#e3eaef" r="20"/></g><path d="m385.999 110.003h40.001v300h-40.001z" fill="#6d91ac"/><g fill="#5cd0b3"><path d="m385.999 410.003v-300h-44.912-45.085c-11 0-20 9-20 20v43.298 54.121 43.298 54.121 43.298 21.865c0 11 9.003 20 20 20h45.085 44.912z"/><path d="m426 110.003v300h30.001c10.998 0 20-9.002 20-20v-259.999c0-10.998-9-20-20-20h-30.001z"/></g></g><g><path d="m456.001 100.003h-104.915v-70.003c0-16.542-13.458-30-30-30h-265.085c-16.542 0-30 13.458-30 30v452.002c0 16.542 13.458 30 30 30h265.085c16.542 0 30-13.458 30-30v-61.999h104.915c16.542 0 30-13.458 30-30v-260c0-16.542-13.458-30-30-30zm-160 300c-5.514 0-10-4.486-10-10v-260c0-5.514 4.486-10 10-10h79.997v280zm99.998-280h20.001v280h-20.001zm-64.913 300v61.999c0 5.514-4.486 10-10 10h-265.085c-5.514 0-10-4.486-10-10v-412.002h97.54c5.523 0 10-4.477 10-10s-4.477-10-10-10h-97.54v-20c0-5.514 4.486-10 10-10h265.085c5.514 0 10 4.486 10 10v20h-97.546c-5.523 0-10 4.477-10 10s4.477 10 10 10h97.546v30.002h-35.085c-13.036 0-24.152 8.361-28.28 20h-109.175c-5.523 0-10 4.477-10 10s4.477 10 10 10h107.455v23.298h-107.455c-5.523 0-10 4.477-10 10s4.477 10 10 10h107.455v34.121h-107.455c-5.523 0-10 4.477-10 10s4.477 10 10 10h107.455v23.298h-107.455c-5.523 0-10 4.477-10 10s4.477 10 10 10h107.455v34.121h-107.455c-5.523 0-10 4.477-10 10s4.477 10 10 10h107.455v23.298h-107.455c-5.523 0-10 4.477-10 10s4.477 10 10 10h107.455v11.864c0 16.542 13.458 30 30 30zm134.915-30c0 5.514-4.486 10-10 10h-20.001v-280h20.001c5.514 0 10 4.486 10 10z"/><path d="m188.544 412c-16.542 0-30 13.458-30 30s13.458 30 30 30 30-13.458 30-30-13.458-30-30-30zm0 40c-5.514 0-10-4.486-10-10s4.486-10 10-10 10 4.486 10 10-4.486 10-10 10z"/><path d="m118.545 120.003h-40c-5.523 0-10 4.477-10 10v43.297c0 5.523 4.477 10 10 10h40c5.523 0 10-4.477 10-10v-43.296c0-5.524-4.477-10.001-10-10.001zm-10 43.297h-20v-23.296h20z"/><path d="m118.545 217.422h-40c-5.523 0-10 4.477-10 10v43.296c0 5.523 4.477 10 10 10h40c5.523 0 10-4.477 10-10v-43.296c0-5.523-4.477-10-10-10zm-10 43.296h-20v-23.296h20z"/><path d="m118.545 314.841h-40c-5.523 0-10 4.477-10 10v43.296c0 5.523 4.477 10 10 10h40c5.523 0 10-4.477 10-10v-43.296c0-5.523-4.477-10-10-10zm-10 43.296h-20v-23.296h20z"/><path d="m316.002 140.005c-5.523 0-10 4.477-10 10v77.417c0 5.523 4.477 10 10 10s10-4.477 10-10v-77.417c0-5.523-4.477-10-10-10z"/><path d="m188.544 70c5.523 0 10-4.477 10-10s-4.477-10-10-10h-.008c-5.523 0-9.996 4.477-9.996 10s4.481 10 10.004 10z"/></g></g></svg>