<svg height="512" viewBox="0 0 512 512" width="512" xmlns="http://www.w3.org/2000/svg"><g><g><rect fill="#96c8ef" height="480" rx="20" width="272" x="120" y="16"/><path d="m296 48h-80l-8-32h96z" fill="#57565c"/><circle cx="120" cy="184" fill="#ffda44" r="56"/><rect fill="#91cc04" height="96" rx="8" width="144" x="304" y="288"/><path d="m328 312h32v24h-32z" fill="#e0e0e2"/></g><g><path d="m280 464h-48a8 8 0 0 0 0 16h48a8 8 0 0 0 0-16z"/><path d="m440 280h-40v-244a28.031 28.031 0 0 0 -28-28h-232a28.031 28.031 0 0 0 -28 28v84.52a63.98 63.98 0 0 0 0 126.96v228.52a28.031 28.031 0 0 0 28 28h232a28.031 28.031 0 0 0 28-28v-84h40a16.021 16.021 0 0 0 16-16v-80a16.021 16.021 0 0 0 -16-16zm-146.25-256-4 16h-67.5l-4-16zm-173.75 208a48 48 0 1 1 48-48 48.051 48.051 0 0 1 -48 48zm264 244a12.01 12.01 0 0 1 -12 12h-232a12.01 12.01 0 0 1 -12-12v-228.52a63.98 63.98 0 0 0 0-126.96v-84.52a12.01 12.01 0 0 1 12-12h61.75l6.49 25.94a8 8 0 0 0 7.76 6.06h80a8 8 0 0 0 7.76-6.06l6.49-25.94h61.75a12.01 12.01 0 0 1 12 12v244h-72a16.021 16.021 0 0 0 -16 16v80a16.021 16.021 0 0 0 16 16h72zm56-100h-128v-80h128l.01 80z"/><path d="m144 184v24a8 8 0 0 1 -8 8h-8a8 8 0 0 1 -16 0h-8a8 8 0 0 1 0-16h24v-8h-24a8 8 0 0 1 -8-8v-24a8 8 0 0 1 8-8h8a8 8 0 0 1 16 0h8a8 8 0 0 1 0 16h-24v8h24a8 8 0 0 1 8 8z"/><path d="m360 304h-32a8 8 0 0 0 -8 8v24a8 8 0 0 0 8 8h32a8 8 0 0 0 8-8v-24a8 8 0 0 0 -8-8zm-8 24h-16v-8h16z"/><path d="m424 352h-40a8 8 0 0 0 0 16h40a8 8 0 0 0 0-16z"/><path d="m424 304h-8a8 8 0 0 0 0 16h8a8 8 0 0 0 0-16z"/><path d="m240.5 191.5h99.686l-10.343 10.343a8 8 0 0 0 11.314 11.314l24-24a8 8 0 0 0 0-11.314l-24-24a8 8 0 0 0 -11.314 11.314l10.343 10.343h-99.686a8 8 0 0 0 0 16z"/><path d="m208 192h8a8 8 0 0 0 0-16h-8a8 8 0 0 0 0 16z"/><path d="m170.814 344h77.186a8 8 0 0 0 0-16h-76.186l9.843-9.843a8 8 0 1 0 -11.314-11.314l-24 24a8 8 0 0 0 0 11.314l24 24a8 8 0 1 0 11.314-11.314z"/><path d="m272.5 328a8 8 0 0 0 0 16h7a8 8 0 0 0 0-16z"/></g></g></svg>