<svg id="Capa_1" enable-background="new 0 0 511.997 511.997" height="512" viewBox="0 0 511.997 511.997" width="512" xmlns="http://www.w3.org/2000/svg"><g><g><g clip-rule="evenodd" fill-rule="evenodd"><path d="m247.824 428.149h-211.415l-.001 54.412 21.853 21.936h243.316l21.854-21.936v-54.412h-43.166z" fill="#a7eed4"/><path d="m262.706 7.497h-115.191-32.441-17.941l11.394 60.001h142.788z" fill="#a7eed4"/><path d="m323.431 29.436-21.854-21.936-38.87-.002-11.392 60.001h-142.788l-11.394-60.002-38.872.003-21.853 21.936.001 398.714h287.022v-50.084c0-116.211 0-232.421 0-348.63z" fill="#d0dbef"/><path d="m66.408 428.149h-29.999l-.001 54.412 21.853 21.936h29.999l-21.852-21.936z" fill="#71e4bf"/><path d="m58.261 7.5-21.853 21.936.001 398.713h29.999v-398.713l21.852-21.936z" fill="#a0b6de"/><path d="m475.589 195.999c0-65.886-53.209-119.298-118.845-119.298-11.565 0-22.744 1.658-33.314 4.75-49.422 14.458-85.532 60.27-85.532 114.548 0 16.119 3.192 31.488 8.964 45.514l-28.262 69.489 73.273-15.038c9.64 6.318 20.25 11.269 31.558 14.579 10.569 3.094 21.749 4.753 33.314 4.753 65.635.001 118.844-53.41 118.844-119.297z" fill="#6b809b"/><path d="m475.589 195.999c0-65.886-53.209-119.298-118.845-119.298-11.565 0-22.744 1.658-33.314 4.75-49.422 14.458-85.532 60.27-85.532 114.548 0 16.119 3.192 31.488 8.964 45.514l-28.262 69.489 73.273-15.038c9.64 6.318 20.25 11.269 31.558 14.579 10.569 3.094 21.749 4.753 33.314 4.753 65.635.001 118.844-53.41 118.844-119.297z" fill="#ed9b88"/><path d="m218.6 311.002 28.263-69.489c-5.772-14.026-8.964-29.395-8.964-45.514 0-54.277 36.11-100.089 85.532-114.547v-15.554c-1.409.362-2.813.748-4.212 1.157-57.106 16.706-96.32 69.362-96.32 128.944 0 15.488 2.636 30.807 7.837 45.353l-36.599 89.984 94.899-19.476c9.474 5.585 19.614 9.987 30.181 13.08 1.399.41 2.804.796 4.214 1.158v-15.554c-11.307-3.31-21.917-8.261-31.558-14.579z" fill="#a0b6de"/><path d="m371.738 77.643c-4.911-.621-9.915-.942-14.994-.942-11.565 0-22.744 1.658-33.314 4.75-49.422 14.458-85.532 60.27-85.532 114.548 0 16.119 3.192 31.488 8.964 45.514l-28.262 69.489 32.732-6.717 25.531-62.772c-5.772-14.026-8.964-29.395-8.964-45.514 0-54.277 36.11-100.089 85.532-114.548 5.924-1.733 12.039-3.015 18.307-3.808z" fill="#e76c4c"/></g><g><path d="m73.793 147.542h-15v-44.679h15zm0-59.678h-15v-14.583h15zm0-29.583h-15v-14.584h15z" fill="#fff"/></g><g><path d="m286.043 458.148h15v14.999h-15z" fill="#fff"/></g></g><g><path d="m451.612 112.264-11.277 9.891c17.898 20.407 27.755 46.633 27.755 73.845 0 61.646-49.949 111.798-111.345 111.798-21.675 0-42.687-6.261-60.762-18.105l-2.588-1.695-62.563 12.84 24.135-59.339-1.168-2.838c-5.574-13.544-8.4-27.897-8.4-42.66 0-61.646 49.95-111.798 111.347-111.798 27.169 0 53.336 9.939 73.68 27.988l9.955-11.221c-23.091-20.485-52.793-31.768-83.635-31.768-8.844 0-17.478.921-25.814 2.665v-45.53l-26.24-26.337h-168.409v15h117.365l-8.543 44.998h-130.368l-8.545-44.998h15.147v-15h-66.194l-26.237 26.337v459.323l26.237 26.337h249.547l26.238-26.337v-165.523c8.434 1.759 17.076 2.66 25.814 2.66 69.667 0 126.345-56.881 126.345-126.798 0-30.853-11.178-60.591-31.477-83.735zm-135.682 308.385h-53.163v15h53.163v43.813l-17.469 17.534h-237.086l-17.468-17.534v-43.813h203.916v-15h-203.915v-388.115l17.467-17.534h29.549l11.393 59.998h155.208l11.391-59.998h29.546l17.469 17.534v43.459c-49.701 17.071-85.532 64.416-85.532 120.006 0 15.687 2.818 30.972 8.382 45.481l-32.411 79.688 84.035-17.245c8.072 5.008 16.635 9.039 25.526 12.084v104.642z"/><path d="m100.768 314.001h77.026v15h-77.026z"/><path d="m100.768 344.001h14.942v15h-14.942z"/><path d="m130.654 344.001h47.141v15h-47.141z"/><path d="m130.654 284.001h47.141v15h-47.141z"/><path d="m100.768 284.001h14.942v15h-14.942z"/><path d="m177.537 152.994h-76.51v116.008h76.51zm-15 101.008h-46.51v-86.008h46.51z"/><path d="m380.819 150.999h-67.244l13.82-17.92-11.879-9.16-26.667 34.58 26.667 34.58 11.879-9.16-13.82-17.92h67.244z"/><path d="m395.82 150.999h15v15h-15z"/><path d="m298.32 225.999h15v15h-15z"/><path d="m393.622 268.079 26.67-34.58-26.67-34.58-11.877 9.16 13.819 17.92h-67.244v15h67.244l-13.819 17.92z"/><path d="m155.689 458.824h48.462v15h-48.462z"/></g></g></svg>